<svg xmlns="http://www.w3.org/2000/svg" width="256" height="256" viewBox="0 0 100 100"><rect width="100" height="100" rx="20" fill="#1e1e2c"></rect><path fill="#fff" d="M18.50 50.45L16.75 52.90L17.03 53.46Q25.99 45.90 36.21 40.58L36.21 40.58Q37.89 40.86 38.48 42.33Q39.08 43.80 38.31 45.48L38.31 45.48Q25.36 50.66 18.43 56.47L18.43 56.47Q24.17 67.53 37.75 73.69L37.75 73.69Q38.45 74.95 37.54 76.25Q36.63 77.54 34.53 78.38L34.53 78.38Q29.91 75.72 25.18 71.28Q20.46 66.83 17.03 61.79L17.03 61.79Q15.70 68.79 14.09 78.38L14.09 78.38Q9.47 78.80 8.07 76.70L8.07 76.70Q12.55 61.51 16.33 36.94L16.33 36.94L15.63 23.64Q18.36 21.12 22.42 21.61L22.42 21.61Q22.35 27.35 18.50 50.45L18.50 50.45ZM69.04 78.38L69.04 78.38Q64.70 78.87 62.81 76.63L62.81 76.63Q65.47 60.74 68.34 49.12L68.34 49.12Q67.15 46.25 64.63 45.20L64.63 45.20Q61.69 46.74 59.20 49.30Q56.72 51.85 52.87 56.68L52.87 56.68Q50.77 70.19 49.23 78.38L49.23 78.38Q44.75 78.80 43.21 76.70L43.21 76.70Q47.13 63.68 49.37 52.34L49.37 52.34L47.90 42.33Q50.84 39.60 54.83 40.16L54.83 40.16Q55.18 41.84 54.06 47.79L54.06 47.79L52.17 51.22L52.80 51.71Q52.87 51.50 53.88 50.31Q54.90 49.12 55.67 48.18Q56.44 47.23 56.75 46.92Q57.07 46.60 57.84 45.80Q58.61 44.99 59.06 44.61Q59.52 44.22 60.29 43.56Q61.06 42.89 61.69 42.47L61.69 42.47Q63.58 41.21 64.84 40.58L64.84 40.58Q67.92 41.07 70.13 42.68Q72.33 44.29 73.24 46.25L73.24 46.25L71.42 49.40L72.05 49.82Q77.30 43.59 83.04 40.58L83.04 40.58Q87.17 41.35 89.44 43.77Q91.72 46.18 91.93 49.19L91.93 49.19L89.41 55.42Q88.08 67.04 87.45 78.38L87.45 78.38Q83.18 78.87 81.29 76.63L81.29 76.63Q82.76 66.97 86.05 49.47L86.05 49.47Q85.63 46.74 83.11 45.55L83.11 45.55Q77.79 47.51 72.05 54.23L72.05 54.23Q69.74 61.16 69.04 78.38Z"></path></svg>